<svg width="335" height="86" viewBox="0 0 335 86" fill="none" xmlns="http://www.w3.org/2000/svg">
<path d="M114.041 47.1219H116.233V56.7097H120.618V47.1219H122.81V56.7097H124.563V61.0678H122.371V58.4529H114.041V47.1219Z" fill="#323D39"/>
<path d="M133.77 48.8651H129.824V51.4799H133.77V53.2232H129.824V56.2738H133.77V58.0171H127.194V46.686H133.77V48.8651Z" fill="#323D39"/>
<path d="M139.469 51.48H144.292V47.1219H146.484V58.4529H144.292V53.2232H139.469V58.4529H137.277V47.1219H139.469V51.48Z" fill="#323D39"/>
<path d="M154.375 48.8651V58.4529H152.183V48.8651H149.553V47.1219H157.006V48.8651H154.375Z" fill="#323D39"/>
<path d="M162.705 47.1219C164.02 47.1219 164.897 47.1219 165.774 47.9935C166.651 48.8651 167.089 49.7367 167.089 50.6084C167.089 51.0442 167.089 52.3516 166.212 53.2232C165.774 53.659 164.459 54.0948 163.143 54.0948H161.828V58.4529H159.636V47.1219H162.705ZM161.828 52.3516H162.705C163.143 52.3516 163.582 52.3516 164.02 51.9158C164.459 51.48 164.459 51.0442 164.459 50.6084C164.459 50.1725 164.02 49.7367 164.02 49.3009C163.582 48.8651 163.143 48.8651 162.266 48.8651H161.39V52.3516H161.828Z" fill="#323D39"/>
<path d="M183.749 58.0171C182.872 58.4529 181.995 58.8887 181.118 58.8887C178.926 58.8887 178.049 58.0171 176.734 57.1455C175.419 55.8381 174.98 54.5306 174.98 52.7874C174.98 50.6084 175.857 49.3009 176.734 48.4293C178.049 47.5577 179.364 47.1219 181.118 47.1219C181.995 47.1219 182.872 47.1219 183.749 47.9935V50.1725C182.872 48.8651 181.557 48.8651 181.118 48.8651C178.926 48.8651 177.172 50.6084 177.172 52.7874C177.172 55.4023 178.926 56.7097 181.118 56.7097C181.995 56.7097 183.31 56.2739 183.749 55.4023V58.0171Z" fill="#323D39"/>
<path d="M196.024 47.1219V58.4529H193.832V48.8651H189.009V58.4529H186.817V47.1219H196.024Z" fill="#323D39"/>
<path d="M202.162 47.1219V54.5306L208.3 47.1219H210.053V58.4529H207.861V50.6084L201.723 58.4529H199.97V47.1219H202.162Z" fill="#323D39"/>
<path d="M222.767 47.1219V56.7097H224.082V61.0678H221.89V58.4529H214.876V61.0678H212.684V56.7097C213.56 56.7097 213.999 55.8381 214.437 54.9664C214.876 54.5306 214.876 53.659 214.876 51.9158V47.1219H222.767ZM217.506 51.9158C217.506 53.659 217.506 54.5306 217.068 54.9664C216.629 55.4023 216.629 55.8381 216.191 56.2739H221.013V48.8651H217.506V51.9158Z" fill="#323D39"/>
<path d="M115.795 67.6049H117.549L120.617 75.0136L123.686 67.6049H125.44L127.194 78.9359H125.002L124.125 71.9629L121.056 78.9359H120.179L117.11 71.9629L115.795 78.9359H113.603L115.795 67.6049Z" fill="#323D39"/>
<path d="M142.1 73.2704C142.1 76.7569 139.469 79.3717 135.962 79.3717C132.455 79.3717 129.824 76.7569 129.824 73.2704C129.824 69.7839 132.455 67.1691 135.962 67.1691C139.469 67.1691 142.1 69.7839 142.1 73.2704ZM139.908 73.2704C139.908 71.0913 138.154 69.3481 135.962 69.3481C133.77 69.3481 132.016 71.0913 132.016 73.2704C132.016 75.4494 133.77 77.1927 135.962 77.1927C138.592 77.1927 139.908 75.8852 139.908 73.2704Z" fill="#323D39"/>
<path d="M153.937 78.5001C153.06 78.9359 152.183 79.3717 151.306 79.3717C149.114 79.3717 148.237 78.5001 146.922 77.6285C145.607 76.321 145.168 75.0136 145.168 73.2704C145.168 71.0913 146.045 69.7839 146.922 68.9123C148.237 68.0407 149.553 67.6049 151.306 67.6049C152.183 67.6049 153.06 67.6049 153.937 68.4765V71.0913C153.06 69.7839 151.745 69.7839 151.306 69.7839C149.114 69.7839 147.361 71.5271 147.361 73.7062C147.361 76.321 149.114 77.6285 151.306 77.6285C152.183 77.6285 153.498 77.1927 153.937 76.321V78.5001Z" fill="#323D39"/>
<path d="M159.636 72.3988L164.02 67.6049H166.651L161.828 72.8346L167.089 78.9359H164.02L159.636 74.142V78.9359H157.444V67.6049H159.636V72.3988Z" fill="#323D39"/>
<path d="M180.68 73.2704C180.68 76.7569 178.049 79.3717 174.542 79.3717C171.035 79.3717 168.404 76.7569 168.404 73.2704C168.404 69.7839 171.035 67.1691 174.542 67.1691C178.049 67.1691 180.68 69.7839 180.68 73.2704ZM178.488 73.2704C178.488 71.0913 176.734 69.3481 174.542 69.3481C172.35 69.3481 170.596 71.0913 170.596 73.2704C170.596 75.4494 172.35 77.1927 174.542 77.1927C176.734 77.1927 178.488 75.8852 178.488 73.2704Z" fill="#323D39"/>
<path d="M186.817 67.6049C187.256 67.6049 188.571 67.6049 189.448 68.4765C190.325 68.9123 190.325 69.7839 190.325 70.6555C190.325 71.9629 189.448 72.8346 189.009 72.8346C189.886 72.8346 190.325 73.2704 190.325 73.7062C191.201 74.142 191.201 75.4494 191.201 75.8852C191.201 76.7568 191.201 77.6285 190.325 78.0643C189.448 78.9359 188.571 78.9359 187.256 78.9359H183.31V67.6049H186.817ZM186.379 72.3988H186.817C187.256 72.3988 188.571 72.3988 188.571 71.0913C188.571 70.2197 187.694 69.7839 186.817 69.7839H186.379V72.3988ZM186.379 77.1927H187.256C187.694 77.1927 188.133 77.1927 189.009 76.7568C189.448 76.321 189.886 75.8852 189.886 75.4494C189.886 75.0136 189.886 74.5778 189.009 74.142C188.571 73.7062 188.133 73.7062 187.256 73.7062H186.379V77.1927Z" fill="#323D39"/>
<path d="M203.477 78.5001C202.6 78.9359 201.723 79.3717 200.847 79.3717C198.654 79.3717 197.778 78.5001 196.462 77.6285C195.147 76.321 194.709 75.0136 194.709 73.2704C194.709 71.0913 195.586 69.7839 196.462 68.9123C197.778 68.0407 199.093 67.6049 200.847 67.6049C201.723 67.6049 202.6 67.6049 203.477 68.4765V71.0913C202.6 69.7839 201.285 69.7839 200.847 69.7839C198.654 69.7839 196.901 71.5271 196.901 73.7062C196.901 76.321 198.654 77.6285 200.847 77.6285C201.723 77.6285 203.039 77.1927 203.477 76.321V78.5001Z" fill="#323D39"/>
<path d="M209.176 72.3988L213.56 67.6049H216.191L211.368 72.8346L216.629 78.9359H213.56L209.615 73.7062L209.176 74.142V78.9359H206.984V67.6049H209.176V72.3988Z" fill="#323D39"/>
<path d="M230.22 73.2704C230.22 76.7569 227.59 79.3717 224.082 79.3717C220.575 79.3717 217.944 76.7569 217.944 73.2704C217.944 69.7839 220.575 67.1691 224.082 67.1691C227.59 67.6049 230.22 69.7839 230.22 73.2704ZM227.59 73.2704C227.59 71.0913 225.836 69.3481 223.644 69.3481C221.452 69.3481 219.698 71.0913 219.698 73.2704C219.698 75.4494 221.452 77.1927 223.644 77.1927C226.274 77.1927 227.59 75.8852 227.59 73.2704Z" fill="#323D39"/>
<path d="M235.481 67.6049V75.0136L241.619 67.6049H243.372V78.9359H241.18V71.0913L235.042 78.9359H233.289V67.6049H235.481ZM236.796 64.1184C237.235 64.99 238.111 64.99 238.55 64.99C238.988 64.99 239.865 64.99 240.303 64.1184L242.057 64.5542C241.619 65.8616 240.742 66.2975 238.988 66.2975C237.235 66.2975 236.358 65.4258 235.919 64.5542L236.796 64.1184Z" fill="#323D39"/>
<path d="M264.416 73.2704C264.416 76.7569 261.785 79.3717 258.278 79.3717C254.771 79.3717 252.14 76.7569 252.14 73.2704C252.14 69.7839 254.771 67.1691 258.278 67.1691C261.785 67.6049 264.416 69.7839 264.416 73.2704ZM262.224 73.2704C262.224 71.0913 260.47 69.3481 258.278 69.3481C256.086 69.3481 254.333 71.0913 254.333 73.2704C254.333 75.4494 256.086 77.1927 258.278 77.1927C260.47 77.1927 262.224 75.8852 262.224 73.2704Z" fill="#323D39"/>
<path d="M267.923 67.6049H274.499V69.3481H270.115V71.9629H271.869C272.746 71.9629 274.061 71.9629 274.938 72.8346C275.376 73.2704 275.815 74.142 275.815 75.4494C275.815 76.321 275.376 76.7568 275.376 77.6285C274.499 78.9359 273.184 78.9359 271.869 78.9359H267.923V67.6049ZM270.115 77.1927H270.992C272.746 77.1927 273.184 76.321 273.184 75.8852C273.184 75.0136 272.746 74.142 270.992 74.142H269.677V77.1927H270.115Z" fill="#323D39"/>
<path d="M287.652 67.6049V78.9359H285.46V69.3481H281.952V74.5778C281.952 75.8852 281.952 77.1927 280.637 78.5001C280.199 78.9359 279.322 79.3717 278.445 79.3717C278.007 79.3717 278.007 79.3717 277.568 79.3717V77.6285H278.007C278.445 77.6285 278.884 77.1927 278.884 77.1927C279.322 76.7568 279.322 75.4494 279.322 74.5778V67.6049H287.652Z" fill="#323D39"/>
<path d="M298.174 76.7568H293.351L292.474 79.3717H289.844L294.666 68.0406H296.42L301.242 79.3717H298.612L298.174 76.7568ZM297.735 75.0136L295.981 71.0913L294.228 75.0136H297.735Z" fill="#323D39"/>
<path d="M312.203 78.5001C311.326 78.9359 310.449 79.3717 309.572 79.3717C307.38 79.3717 306.503 78.5001 305.188 77.6285C303.873 76.321 303.434 75.0136 303.434 73.2704C303.434 71.0913 304.311 69.7839 305.188 68.9123C306.503 68.0407 307.819 67.6049 309.572 67.6049C310.449 67.6049 311.326 67.6049 312.203 68.4765V71.0913C311.326 69.7839 310.011 69.7839 309.572 69.7839C307.38 69.7839 305.627 71.5271 305.627 73.7062C305.627 76.321 307.38 77.6285 309.572 77.6285C310.449 77.6285 311.764 77.1927 312.203 76.321V78.5001Z" fill="#323D39"/>
<path d="M319.656 69.7839V79.3717H317.464V69.7839H314.833V67.6049H322.286V69.3481H319.656V69.7839Z" fill="#323D39"/>
<path d="M327.109 67.6049V75.0136L333.246 67.6049H335V78.9359H332.808V71.0913L326.67 78.9359H324.917V67.6049H327.109Z" fill="#323D39"/>
<path d="M113.603 33.1759V8.33484H122.371V17.051H128.07V8.33484H136.839V33.6118H128.07V24.8956H122.371V33.6118H113.603V33.1759Z" fill="#323D39"/>
<path d="M142.976 33.1759V8.33484H152.183V33.6118H142.976V33.1759Z" fill="#323D39"/>
<path d="M155.69 8.33484H165.335L168.843 20.1017C169.281 20.9733 169.281 22.7165 169.281 23.5881H169.719C169.719 22.7165 170.158 21.4091 170.158 20.1017L173.665 8.33484H183.31L173.665 33.6118H165.774L155.69 8.33484Z" fill="#323D39"/>
<path d="M184.187 33.176L188.133 7.89905H197.778L200.847 18.3585C201.285 19.6659 201.285 20.9733 201.285 21.4091H201.723C201.723 20.1017 201.723 19.6659 202.162 18.3585L205.231 7.89905H214.437L218.383 33.176H209.615L208.3 21.8449C208.3 20.9733 208.3 20.5375 208.3 19.2301C208.3 19.6659 207.861 20.9733 207.861 21.4091L203.915 33.176H198.655L195.147 22.2807C195.147 21.4091 194.709 20.5375 194.709 19.6659H194.27C194.27 20.1017 194.27 20.9733 194.27 21.8449L192.955 33.6118H184.187V33.176Z" fill="#98E2D4"/>
<path d="M246.88 29.6895C244.688 31.8686 241.18 33.6118 236.358 33.6118C231.535 33.6118 228.028 31.8686 225.836 29.6895C223.644 27.5105 222.329 24.4598 222.329 20.5375C222.329 16.6152 224.082 13.5646 225.836 11.3855C228.028 9.20649 231.535 7.46326 236.358 7.46326C241.18 7.46326 244.688 9.20649 246.88 11.3855C249.072 13.5646 250.387 16.6152 250.387 20.5375C250.387 24.8956 249.072 27.9463 246.88 29.6895ZM233.289 17.0511C232.412 17.9227 231.974 19.6659 231.974 20.9733C231.974 22.2808 232.412 23.5882 233.289 24.8956C234.166 25.7672 235.042 26.203 236.796 26.203C238.111 26.203 239.427 25.7672 240.303 24.8956C241.18 24.024 241.619 22.7166 241.619 20.9733C241.619 19.2301 241.18 17.9227 240.303 17.0511C239.427 16.1794 238.55 15.7436 236.796 15.7436C234.604 15.7436 233.727 16.1794 233.289 17.0511Z" fill="#98E2D4"/>
<path d="M263.539 32.3043C262.662 33.176 260.909 33.6118 259.594 33.6118C258.278 33.6118 256.963 33.176 255.648 32.3043C254.771 31.4327 254.333 30.5611 254.333 29.6895C254.333 28.8179 254.771 27.5104 255.648 27.0746C256.525 26.203 258.278 25.7672 259.594 25.7672C260.909 25.7672 262.224 26.203 263.539 27.0746C264.416 27.9463 264.854 28.8179 264.854 29.6895C264.416 30.5611 263.978 31.8685 263.539 32.3043Z" fill="#98E2D4"/>
<path d="M269.677 33.1759V8.33484H281.076C283.706 8.33484 286.336 8.77065 288.967 10.9497C290.282 12.2571 291.159 14.0004 291.159 17.051C291.159 19.2301 290.282 20.5375 289.844 21.4091C288.967 22.2807 287.652 23.1523 286.337 23.5881V24.024C286.775 24.024 287.652 24.4598 287.652 24.8956L293.351 33.1759H282.829L279.322 25.7672C279.322 25.3314 278.884 25.3314 278.884 24.8956V33.1759H269.677ZM278.884 19.2301H279.76C280.199 19.2301 281.076 19.2301 281.514 18.7943C281.952 18.7943 282.391 17.9226 282.391 17.4868C282.391 17.051 282.391 16.1794 281.952 16.1794C281.514 15.3078 281.076 15.3078 280.199 15.3078H278.445V19.2301H278.884Z" fill="#98E2D4"/>
<path d="M297.735 8.33484H306.942V23.1523C306.942 24.024 306.942 24.8956 307.819 25.7672C308.257 26.203 309.134 26.6388 309.572 26.6388C310.449 26.6388 310.887 26.203 311.326 26.203C312.203 25.3314 312.203 24.024 312.203 23.5881V8.33484H321.409V23.5881C321.409 25.7672 320.971 28.382 318.779 30.5611C316.148 33.1759 312.641 33.6118 309.572 33.6118C307.38 33.6118 302.996 33.1759 300.366 30.1253C298.174 27.9462 298.174 25.7672 298.174 23.5881V8.33484H297.735Z" fill="#98E2D4"/>
<path d="M24.6058 68.4765C27.2362 65.4258 29.8667 62.8109 32.0587 59.7603C34.6892 56.7096 36.8812 53.659 39.0733 50.6083C41.2653 47.5576 43.4574 44.507 45.6494 41.0205C46.5263 39.2773 47.4031 37.9698 48.2799 36.2266C49.1567 34.4834 49.5951 32.7401 50.0335 30.9969C50.0335 30.5611 50.0335 30.1253 50.472 29.6895C50.472 29.2537 50.472 28.8179 50.472 28.382C50.472 27.5104 50.472 27.0746 50.472 26.203C50.0335 24.8956 49.1567 24.024 48.2799 23.1523C47.8415 22.7165 46.9647 22.7165 46.5263 22.2807C46.0879 22.2807 46.0879 22.2807 45.6494 22.2807H45.211H44.7726C43.4574 22.2807 42.5806 22.7165 41.7038 23.5882C40.3885 24.8956 39.9501 26.203 39.9501 27.0746C39.9501 27.5104 39.9501 27.5104 39.9501 27.9462C39.9501 28.382 39.9501 28.8179 39.9501 29.2537C39.9501 29.6895 39.9501 30.1253 39.9501 30.5611C39.9501 30.9969 39.9501 31.4327 40.3885 31.8685C41.2653 34.9192 43.019 38.4057 44.7726 41.4563C46.5263 44.507 48.7183 47.5576 51.3488 50.1725C53.5408 52.7873 56.1713 55.4022 58.8017 57.5812L59.2402 58.017L59.6786 58.4529L60.5554 59.3245C61.4322 59.7603 61.8706 60.1961 62.7474 60.6319L64.0627 61.0677L64.5011 61.5035L64.9395 61.9393L66.2547 62.3751L67.1315 62.8109C68.4468 63.2467 69.762 63.2467 70.6388 63.2467C71.5156 63.2467 72.3924 62.8109 73.2693 61.9393C74.1461 61.0677 74.5845 59.7603 75.4613 58.4529C75.8997 57.1454 76.7766 55.4022 76.7766 53.659C77.215 51.9157 77.215 50.1725 77.6534 48.4293C77.6534 47.5576 77.6534 46.686 77.6534 45.8144V45.3786C77.6534 44.9428 77.6534 44.9428 77.6534 44.507V43.1995C77.215 36.2266 75.0229 29.6895 70.6388 24.4598C66.6931 18.7943 60.9938 14.872 54.4176 12.2571C52.664 11.8213 51.3488 11.3855 49.5951 10.9497C47.8415 10.5139 46.0879 10.5139 44.3342 10.0781C42.5806 10.0781 40.8269 10.0781 39.0733 10.0781C38.6349 10.0781 36.8812 10.5139 35.1276 10.9497C28.5515 12.2571 22.4137 16.1794 17.5912 20.9733C12.7687 25.7672 9.26141 32.3043 7.94618 38.8415C7.50777 42.3279 7.06936 45.8144 7.50777 49.3009C7.50777 51.0441 7.94618 52.7873 8.38459 54.5306C8.823 56.2738 9.26141 58.017 10.1382 59.7603C13.2071 66.2974 18.0296 71.9629 23.7289 75.8852C29.8667 79.8075 36.8812 82.4223 44.7726 82.4223C48.7183 82.4223 52.2256 81.9865 56.1713 81.1149C59.6786 80.2433 63.6243 78.5001 66.6931 76.7568C63.6243 79.3717 60.117 81.1149 56.6097 82.8582C53.1024 84.1656 49.1567 85.0372 44.7726 85.473C40.8269 85.9088 36.4428 85.473 32.4971 84.6014C28.5515 83.7298 24.6058 82.4223 21.0985 80.2433C17.5912 78.0643 14.0839 75.4494 11.4535 72.3987C10.1382 71.0913 8.823 69.3481 7.50777 67.6048C6.19254 65.8616 5.31572 64.1184 4.4389 62.3751C0.493212 54.9664 -0.822019 46.2502 0.493211 37.534C0.931621 35.355 1.37003 33.1759 1.80844 31.4327C2.24685 29.2537 3.12367 27.5104 4.00049 25.3314C4.87731 23.5882 5.75413 21.4091 7.06936 19.6659C8.38459 17.9226 9.69982 16.1794 11.015 14.4362C16.7144 7.89903 24.6058 3.10514 32.9356 1.3619C41.2653 -0.817142 50.472 -0.381333 58.8017 2.66933C67.1315 5.71999 74.5845 10.9497 79.8454 17.9226C85.1063 24.8956 88.1752 33.6118 88.6136 42.3279V44.0712C88.6136 44.507 88.6136 44.507 88.6136 44.9428V45.8144C88.6136 47.1218 88.6136 47.9934 88.1752 48.8651C87.7368 51.0441 87.7368 53.2231 87.2984 55.4022C86.86 57.5812 85.9832 59.7603 85.1063 61.9393C84.2295 64.1184 82.9143 66.2974 80.7222 68.0406C79.8454 68.9123 78.5302 69.7839 77.215 70.6555L76.3381 71.0913L75.4613 71.5271C75.0229 71.5271 74.5845 71.9629 74.5845 71.9629H73.7077C70.6388 72.3987 68.0084 71.9629 65.8163 71.0913L63.1858 70.2197L61.4322 69.3481C60.9938 69.3481 60.9938 68.9123 60.5554 68.9123L59.6786 68.4765L58.8017 68.0406C57.9249 67.6048 57.0481 66.7332 56.1713 66.2974L54.4176 65.4258L53.5408 64.99L53.1024 64.5542C49.5951 61.9393 46.9647 58.8887 44.3342 55.4022C41.7038 52.3515 39.5117 48.8651 37.7581 44.9428C36.0044 41.4563 34.2508 37.534 33.374 33.1759C33.374 32.7401 33.374 31.8685 32.9356 31.4327C32.9356 30.9969 32.9356 30.1253 32.9356 29.6895V27.9462C32.9356 27.0746 32.9356 26.6388 32.9356 25.7672C33.374 23.1523 34.6892 20.9733 36.8812 19.2301C39.0733 17.4868 41.7038 16.6152 44.3342 16.6152H44.7726H45.211C45.6494 16.6152 46.0879 16.6152 46.0879 16.6152C46.9647 16.6152 47.4031 17.051 47.8415 17.051C49.1567 17.4868 50.472 18.3584 51.3488 18.7943C53.5408 20.5375 54.8561 22.7165 55.2945 25.3314C55.7329 26.6388 55.7329 27.9462 55.2945 29.2537C55.2945 29.6895 55.2945 30.5611 54.8561 30.9969C54.8561 31.4327 54.4176 31.8685 54.4176 32.7401C53.5408 34.9192 52.664 36.6624 51.7872 38.4057C50.9104 40.1489 49.5951 41.8921 48.2799 43.6354C46.0879 46.686 43.4574 49.7367 40.8269 52.7873C38.1965 55.838 35.566 58.4529 32.4971 61.0677C30.3051 63.2467 27.6746 66.2974 24.6058 68.4765Z" fill="#ED1A2E"/>
</svg>
