<svg width="259" height="58" viewBox="0 0 259 58" fill="none" xmlns="http://www.w3.org/2000/svg">
<g clip-path="url(#clip0_213_126)">
<path d="M74.8416 2.29811V0H58.8041V2.29811H66.5501L54.7675 43.6642L43.5303 2.29811H50.5126V0H30.0021V2.29811H36.3298L24.6563 43.6642L13.4191 2.29811H20.4014V0H0V2.29811H5.12763L20.2923 58H22.9107L37.0935 7.98868L37.4208 6.1283L50.4035 58H52.9128L68.8412 2.29811H74.8416ZM80.7329 14.0075C80.7329 14.0075 80.6238 14.0075 80.7329 14.0075C72.4414 14.0075 67.532 19.1509 67.532 28.7811V36.9887C67.532 46.5094 72.4414 51.7623 80.7329 51.7623C89.0244 51.7623 93.8248 46.6189 93.9339 36.9887V28.7811C93.8248 19.2604 89.0244 14.0075 80.7329 14.0075ZM87.3879 41.1472C87.3879 49.0264 85.206 50.2302 80.6238 50.2302C76.1508 50.2302 73.8597 49.0264 73.8597 41.366V24.5132C73.8597 16.7434 76.1508 15.6491 80.6238 15.6491C85.206 15.6491 87.3879 16.8528 87.3879 24.7321V41.1472ZM155.465 13.3509H153.393L142.155 49.4641H138.664V50.9962H149.247V49.4641H144.228L147.719 38.5208H157.32L160.375 49.4641H156.338V50.9962H169.103V49.4641H165.612L155.465 13.3509ZM148.047 36.9887L152.52 22.6528H152.847L156.775 36.9887H148.047ZM133.1 49.3547V15.6491H136.591V14.117H126.773L116.408 43.3358L106.589 14.117H96.8795V15.6491H100.262V49.3547H96.9886V50.8868H107.244V49.3547H102.444V17.4L114.008 52.0906H115.644L127.754 17.7283V49.3547H124.045V50.8868H137.028V49.3547C136.919 49.3547 135.173 49.3547 133.1 49.3547C133.318 45.4151 133.1 49.3547 133.1 49.3547ZM188.85 15.6491H194.086V39.9434L178.813 14.117H169.866V15.6491H173.03V49.3547H169.866V50.8868H180.013V49.3547H174.667V18.8226L194.086 51.6528V51.5434V51.6528H195.723V15.5396H199.214V14.0075H188.85V15.6491ZM203.142 40.8189C201.178 40.8189 199.65 42.5698 199.65 44.7585C199.65 46.9472 201.178 48.6981 203.142 48.6981C205.105 48.6981 206.633 46.9472 206.633 44.7585C206.633 42.5698 204.996 40.8189 203.142 40.8189ZM228.343 20.9019C228.343 20.7925 228.234 20.7925 228.234 20.683C228.016 20.4641 227.907 20.2453 227.689 20.1358C227.252 19.8075 226.489 19.5887 225.507 19.5887C222.888 19.5887 221.579 20.9019 220.488 22.6528C219.725 23.8566 218.961 25.3887 218.415 26.2642C218.415 25.717 218.306 24.7321 217.652 23.2C216.888 21.1208 216.124 20.3547 216.015 20.3547H209.797V21.8868H213.724V46.1811H209.797V47.7132H223.979V46.1811H218.306V29.4377C218.961 27.9057 219.834 25.9358 221.252 23.8566C222.67 22.1057 223.434 21.5585 224.198 21.5585C224.525 21.5585 224.525 23.2 224.525 23.966C224.525 24.0755 224.525 24.1849 224.525 24.2943C224.525 24.4038 224.525 24.4038 224.525 24.4038C224.525 27.9057 225.616 28.8906 226.816 28.8906C228.125 28.8906 229.107 28.0151 229.107 24.4038C229.325 23.0906 228.998 21.7774 228.343 20.9019C228.452 20.9019 228.343 20.9019 228.343 20.9019ZM255.836 46.2906C255.182 46.2906 255.072 45.5245 255.072 45.5245V20.3547H250.381V41.0377C250.272 41.1472 247.326 46.9472 243.072 46.9472C240.89 46.9472 240.235 45.7434 240.235 44.4302V20.3547H231.507V21.8868H235.653V42.0226C235.653 42.0226 235.435 48.4792 242.526 48.4792C247.326 48.4792 249.945 44.1019 250.49 43.3358V43.4453C250.381 45.9623 251.254 47.6038 252.563 47.6038H259.109V46.0717L255.836 46.2906Z" fill="#FE142C"/>
</g>
<defs>
<clipPath id="clip0_213_126">
<rect width="259" height="58" fill="white"/>
</clipPath>
</defs>
</svg>
