<svg width="48" height="48" viewBox="0 0 48 48" fill="none" xmlns="http://www.w3.org/2000/svg">
<circle cx="24.2065" cy="23.9995" r="23.5" fill="#DB3738"/>
<g clip-path="url(#clip0_351_33)">
<path d="M34.4653 17.5654C34.1079 16.9281 33.3539 16.4995 32.5884 16.4995C32.5369 16.4995 32.4849 16.5014 32.4335 16.5057H32.4187C32.3544 16.5069 32.2908 16.5124 32.2246 16.5235C31.691 16.6153 31.2019 16.9102 30.8844 17.332L21.9652 27.3587L18.3534 23.6008C17.9723 23.1969 17.3957 22.966 16.7703 22.966C16.2213 22.966 15.7168 23.144 15.351 23.4672C14.9621 23.8102 14.7282 24.3274 14.7076 24.8865C14.687 25.445 14.8831 25.9757 15.245 26.3433L20.5864 31.8918C20.9541 32.2785 21.5165 32.4995 22.1291 32.4995C22.8349 32.4995 23.4776 32.212 23.8485 31.7305L34.2634 19.7752C34.768 19.1589 34.8497 18.2513 34.4653 17.5647V17.5654Z" fill="white"/>
</g>
<defs>
<clipPath id="clip0_351_33">
<rect width="20" height="16" fill="white" transform="translate(14.7065 16.4995)"/>
</clipPath>
</defs>
</svg>
