<svg width="38" height="38" viewBox="0 0 38 38" fill="none" xmlns="http://www.w3.org/2000/svg">
<circle cx="19" cy="19" r="18.5" stroke="white"/>
<path fill-rule="evenodd" clip-rule="evenodd" d="M18.639 19.0046C15.8878 19.0046 13.6367 16.7536 13.6367 14.0023C13.6367 11.251 15.8878 9 18.639 9C21.3903 9 23.6413 11.251 23.6413 14.0023C23.6413 16.7536 21.3903 19.0046 18.639 19.0046ZM18.639 11.3761C17.2009 11.3761 16.0128 12.5641 16.0128 14.0023C16.0128 15.4405 17.2009 16.6285 18.639 16.6285C20.0772 16.6285 21.2652 15.4405 21.2652 14.0023C21.2652 12.5641 20.0772 11.3761 18.639 11.3761Z" fill="white"/>
<path fill-rule="evenodd" clip-rule="evenodd" d="M24.0182 19.5045C23.5805 18.9418 22.8301 18.8792 22.2674 19.2544C22.2674 19.2544 20.8917 20.2549 18.6407 20.2549C16.3897 20.2549 15.014 19.2544 15.014 19.2544C14.4513 18.8167 13.7009 18.9418 13.2632 19.5045C12.8255 20.0673 12.9506 20.8176 13.5133 21.2553C13.5758 21.3178 14.889 22.3183 17.0775 22.631L13.7634 26.0075C13.2632 26.5078 13.2632 27.3206 13.7634 27.7583C14.0136 28.0085 14.3262 28.1335 14.6388 28.1335C14.9515 28.1335 15.2641 28.0085 15.5143 27.7583L18.6407 24.5694L21.7671 27.7583C22.0173 28.0085 22.3299 28.1335 22.6425 28.1335C22.9552 28.1335 23.2678 28.0085 23.5179 27.7583C24.0182 27.2581 24.0182 26.5078 23.5179 26.0075L20.2039 22.631C22.3924 22.2558 23.7055 21.2553 23.7681 21.2553C24.3308 20.8176 24.3934 20.0047 24.0182 19.5045Z" fill="white"/>
</svg>
