<svg width="38" height="38" viewBox="0 0 38 38" fill="none" xmlns="http://www.w3.org/2000/svg">
<circle cx="19" cy="19" r="18.5" stroke="white"/>
<path fill-rule="evenodd" clip-rule="evenodd" d="M28.321 13.8142C27.6332 14.1269 26.9453 14.3145 26.1325 14.4395C26.8828 13.9393 27.5081 13.2515 27.8207 12.3761C27.0704 12.8138 26.2575 13.1264 25.4446 13.314C24.7568 12.5637 23.7564 12.126 22.6934 12.126C20.6299 12.126 18.8791 13.8142 18.8791 15.9402C18.8791 16.2529 18.9416 16.503 19.0042 16.8156C15.8777 16.6906 13.0639 15.1273 11.1881 12.8763C10.8754 13.4391 10.6878 14.0643 10.6878 14.7522C10.6878 16.0653 11.3756 17.2533 12.3761 17.8786C11.7508 17.8786 11.188 17.691 10.6253 17.3784V17.4409C10.6253 19.2543 11.9384 20.8175 13.6892 21.1301C13.3766 21.1926 13.0639 21.2552 12.6887 21.2552C12.4386 21.2552 12.1885 21.2552 12.0009 21.1927C12.5012 22.6934 13.8768 23.8189 15.5651 23.8189C14.252 24.8193 12.6262 25.4446 10.8754 25.4446C10.5628 25.4446 10.2501 25.4446 10 25.3821C11.6883 26.4451 13.6267 27.0704 15.8152 27.0704C22.7559 27.0704 26.5702 21.3177 26.5702 16.3154C26.5702 16.1278 26.5702 16.0027 26.5702 15.8152C27.1329 15.2524 27.7582 14.6271 28.321 13.8142Z" fill="white"/>
</svg>
