<svg width="417" height="332" viewBox="0 0 417 332" fill="none" xmlns="http://www.w3.org/2000/svg">
<path d="M347.19 296.697C321.715 305.95 297.865 305.2 272.058 297.868C245.944 290.614 225.061 285.14 198.349 294.208C180.465 300.046 163.584 309.274 146.302 316.975C128.66 324.974 109.875 331.087 90.2891 331.885C72.307 332.729 53.7807 328.962 38.3645 319.407C22.1627 309.565 10.1473 293.664 4.43024 275.654C-11.2192 225.564 16.8098 172.477 53.7398 139.348C64.7729 129.564 76.8783 120.954 89.3929 113.175C98.212 107.742 107.26 102.678 116.431 97.8677C175.334 66.6264 232.799 31.1805 296.567 10.3502C327.772 0.594163 371.188 -8.83024 398.313 14.8822L400.216 16.6099C401.129 17.4615 401.996 18.5054 402.884 19.3856C403.183 19.6927 403.437 20.0366 403.715 20.36L405.34 22.3374C418.615 39.565 415.313 63.0155 411.777 82.8878C409.608 95.2926 406.129 107.48 405.074 120.02C405.016 120.839 404.844 122.698 404.787 123.484C404.636 126.591 404.546 130.755 404.619 133.915C404.967 148.023 407.799 161.853 411.061 175.601C415.481 194.142 420.031 213.994 414.335 232.814C405.02 263.618 376.529 285.991 347.195 296.697H347.19ZM346.945 296.001C381.321 283.51 415.239 252.797 413.647 213.65C412.829 194.63 405.471 176.747 401.628 158.189C398.108 142.39 396.938 125.854 399.356 109.773C402.52 88.3737 409.444 66.6346 406.461 44.9568C404.979 35.5078 401.444 28.8469 394.728 22.2924C383.678 11.6439 368.676 8.04935 353.656 7.86102C286.136 7.86512 188.622 66.5854 126.687 96.9998C114.643 102.989 102.546 108.917 90.9848 115.812C86.3399 118.567 81.4331 121.625 76.956 124.647C40.4599 148.646 10.3029 186.331 4.26654 230.501C-0.378349 265.276 13.1143 300.222 45.383 316.59C70.5146 329.232 100.254 326.981 126.278 318.015C138.162 313.978 149.633 308.656 161.157 303.546C178.698 295.829 196.721 287.776 216.078 286.11C242.142 283.469 265.981 295.858 290.948 300.664C309.618 304.427 329.077 302.429 346.941 295.997L346.945 296.001Z" fill="#DB3738"/>
</svg>
