<svg width="38" height="38" viewBox="0 0 38 38" fill="none" xmlns="http://www.w3.org/2000/svg">
<circle cx="19" cy="19" r="18.5" stroke="white"/>
<path fill-rule="evenodd" clip-rule="evenodd" d="M18.9977 26.3824H20.2483C20.2483 26.3824 20.6234 26.3199 20.811 26.1323C20.9986 25.9447 20.9986 25.5695 20.9986 25.5695C20.9986 25.5695 20.9986 23.9438 21.749 23.6936C22.4993 23.4435 23.4998 25.3194 24.5002 26.0072C25.2506 26.57 25.8759 26.4449 25.8759 26.4449L28.6271 26.3824C28.6271 26.3824 30.0653 26.3199 29.3775 25.1318C29.315 25.0693 29.0023 24.3189 27.314 22.7557C25.5632 21.13 25.8133 21.4426 27.8768 18.6288C29.1274 16.9405 29.6276 15.9401 29.5025 15.4398C29.3775 15.0021 28.4395 15.1272 28.4395 15.1272H25.3131C25.3131 15.1272 25.063 15.1272 24.9379 15.1897C24.7503 15.3148 24.6878 15.5024 24.6878 15.5024C24.6878 15.5024 24.1876 16.8155 23.5623 17.941C22.1867 20.2545 21.6239 20.3796 21.4363 20.2546C20.9361 19.9419 21.0611 18.8789 21.0611 18.1911C21.0611 15.9401 21.4363 15.0021 20.3733 14.752C20.0607 14.6895 19.8106 14.627 18.9352 14.627C17.8096 14.627 16.8717 14.627 16.3715 14.8771C15.9963 15.0647 15.7462 15.4398 15.9338 15.4398C16.1214 15.4398 16.6216 15.5649 16.8717 15.8775C17.1843 16.3152 17.1843 17.2532 17.1843 17.2532C17.1843 17.2532 17.3719 19.9419 16.7466 20.2546C16.3089 20.5047 15.7462 20.0044 14.4956 17.8785C13.8703 16.8155 13.3701 15.5649 13.3701 15.5649C13.3701 15.5649 13.3075 15.3148 13.12 15.1897C12.9324 15.0647 12.6197 15.0021 12.6197 15.0021H9.68087C9.68087 15.0021 9.24317 15.0021 9.05558 15.1897C8.93052 15.3773 9.05558 15.69 9.05558 15.69C9.05558 15.69 11.3691 21.0674 13.9954 23.8187C16.2464 26.57 18.9977 26.3824 18.9977 26.3824Z" fill="white"/>
</svg>
