<svg width="38" height="38" viewBox="0 0 38 38" fill="none" xmlns="http://www.w3.org/2000/svg">
<circle cx="19" cy="19" r="18.5" stroke="white"/>
<path d="M26.677 10.1425L7.86135 17.9753C7.20041 18.2566 7.27072 19.2128 7.95979 19.3956L11.7426 20.3941C11.9817 20.4503 12.1785 20.6472 12.2629 20.8863L14.1754 26.7785C14.3442 27.3269 15.0754 27.4816 15.4551 27.0316L17.6207 24.5285C17.8879 24.2191 18.352 24.1769 18.6614 24.43L22.8801 27.7769C23.316 28.1285 23.9629 27.9035 24.0895 27.355L27.6895 11.0003C27.8301 10.4097 27.2395 9.91752 26.677 10.1425ZM23.2317 14.2628L15.216 21.2519C15.0332 21.4066 14.9207 21.6316 14.9067 21.8706L14.6254 25.0347C14.6114 25.1753 14.4285 25.1894 14.3864 25.0628L13.1067 20.4785C13.0504 20.2956 13.1207 20.0988 13.2895 20.0003L23.1051 14.0941C23.2176 14.0238 23.3301 14.1785 23.2317 14.2628Z" fill="white"/>
</svg>
